<?xml version="1.0" standalone="no"?>
<!DOCTYPE svg PUBLIC "-//W3C//DTD SVG 20010904//EN"
 "http://www.w3.org/TR/2001/REC-SVG-20010904/DTD/svg10.dtd">
<svg version="1.0" xmlns="http://www.w3.org/2000/svg"
 width="720.000000pt" height="720.000000pt" viewBox="0 0 720.000000 720.000000"
 preserveAspectRatio="xMidYMid meet">
<metadata>
Created by potrace 1.11, written by Peter Selinger 2001-2013
</metadata>
<g transform="translate(0.000000,720.000000) scale(0.100000,-0.100000)"
fill="#000000" stroke="none">
<path d="M3447 6014 c-2 -2 -23 -5 -46 -6 -23 -1 -44 -5 -47 -9 -2 -5 -11 -6
-19 -3 -8 3 -49 -1 -92 -10 -43 -8 -89 -17 -103 -20 -74 -15 -148 -34 -191
-51 -20 -8 -39 -11 -43 -8 -3 4 -6 0 -6 -7 0 -7 -3 -11 -6 -8 -7 8 -214 -71
-264 -101 -8 -5 -47 -26 -87 -45 -77 -39 -326 -201 -331 -217 -2 -5 -8 -9 -12
-9 -5 0 -20 -10 -33 -22 -12 -13 -56 -52 -97 -88 -40 -36 -80 -72 -87 -80 -8
-8 -29 -31 -47 -50 -52 -55 -182 -215 -202 -249 -10 -17 -22 -31 -26 -31 -4 0
-8 -5 -8 -12 0 -6 -11 -26 -25 -44 -14 -18 -25 -35 -25 -37 0 -3 -17 -34 -38
-68 -21 -35 -44 -78 -50 -94 -9 -20 -32 -42 -70 -65 -57 -34 -188 -118 -207
-132 -5 -5 -43 -32 -83 -60 -39 -28 -72 -55 -72 -60 0 -4 -5 -8 -10 -8 -20 0
-251 -222 -300 -288 -14 -19 -31 -40 -38 -47 -6 -8 -12 -16 -12 -20 0 -3 -11
-21 -25 -39 -14 -18 -25 -38 -25 -44 0 -6 -3 -12 -7 -14 -10 -4 -61 -109 -78
-158 -1 -3 -5 -12 -8 -20 -11 -27 -36 -124 -43 -170 -11 -68 -8 -251 5 -306 6
-27 13 -58 16 -69 18 -83 94 -232 160 -315 44 -56 173 -177 220 -207 28 -18
56 -37 62 -43 17 -14 192 -105 218 -113 11 -3 58 -19 105 -36 47 -16 127 -39
178 -52 87 -20 93 -24 108 -55 9 -19 20 -34 25 -34 5 0 9 -6 9 -12 1 -20 99
-150 210 -278 48 -56 111 -118 175 -175 37 -33 76 -68 86 -78 11 -9 21 -17 24
-17 3 0 17 -10 29 -23 22 -20 78 -59 191 -134 81 -53 211 -123 230 -123 7 0
18 -7 25 -15 6 -8 15 -14 18 -13 4 1 23 -5 42 -14 19 -9 62 -26 95 -38 33 -12
74 -27 90 -33 17 -6 35 -12 40 -14 6 -1 21 -4 35 -7 14 -3 34 -10 45 -15 20
-9 93 -26 150 -36 17 -3 39 -7 50 -9 60 -12 168 -26 228 -30 37 -3 72 -8 77
-11 6 -3 10 -1 10 5 0 6 5 8 12 4 14 -9 208 -12 203 -4 -2 3 29 6 68 7 61 2
183 18 288 38 39 7 222 55 239 62 8 3 20 7 25 9 72 20 282 111 380 165 105 57
304 190 351 234 6 5 34 30 63 55 125 106 252 246 379 415 82 110 193 313 257
470 37 90 92 254 98 291 1 10 6 25 10 32 5 6 6 12 4 12 -3 0 3 30 12 68 10 37
17 77 16 90 -1 12 2 22 7 22 5 0 7 4 4 9 -3 4 1 16 8 26 9 13 28 18 64 19 28
1 48 -2 46 -6 -3 -5 -9 -6 -13 -3 -5 2 -16 -1 -25 -8 -16 -12 -16 -15 -3 -26
12 -9 17 -9 23 0 4 7 3 9 -4 5 -6 -3 -13 -2 -16 3 -3 5 1 11 8 14 16 6 40 -16
29 -26 -3 -4 -2 -7 3 -7 5 0 17 14 27 31 14 25 14 30 3 26 -10 -4 -13 -1 -9 9
4 11 9 12 19 3 8 -6 12 -14 10 -18 -6 -9 3 -22 28 -41 19 -15 19 -15 0 15 -10
16 -14 26 -7 22 6 -4 13 -4 16 0 2 5 2 2 1 -5 -2 -7 3 -15 11 -18 8 -4 12 -11
8 -17 -4 -6 -1 -7 8 -1 22 14 53 11 67 -6 10 -13 11 -12 5 5 -6 18 -5 18 10 6
10 -7 17 -9 17 -3 0 17 33 7 42 -14 7 -16 8 -16 4 4 -4 19 0 22 27 22 24 0 28
-3 17 -10 -12 -7 -10 -9 7 -7 12 0 19 5 17 9 -3 4 0 9 5 9 6 1 17 2 24 3 6 1
17 -5 22 -12 9 -11 11 -9 11 7 0 11 -3 18 -7 15 -4 -2 -9 1 -11 8 -3 9 -11 8
-30 -4 -22 -15 -28 -15 -45 -3 -11 8 -24 11 -28 7 -5 -4 -5 -1 -1 5 5 10 13 9
32 -3 22 -15 29 -13 25 8 0 5 2 7 7 7 21 -4 42 2 42 12 0 5 -5 7 -12 3 -7 -4
-8 -3 -4 5 4 6 11 9 16 6 5 -3 11 -1 14 4 3 5 -4 11 -15 14 l-21 6 21 30 c20
27 20 31 5 39 -11 6 -13 11 -5 16 6 4 11 1 11 -6 0 -7 9 0 19 15 10 16 21 28
25 28 17 -2 17 0 5 16 -12 14 -10 14 14 -1 15 -10 27 -14 27 -10 0 5 5 2 10
-6 7 -12 10 -12 10 -1 0 8 6 11 16 7 8 -3 13 -2 10 3 -9 14 25 23 40 10 10 -8
14 -8 14 0 0 6 -5 11 -11 11 -5 0 -8 4 -5 8 3 5 -1 9 -9 9 -8 0 -15 -4 -15 -9
0 -4 -5 -8 -11 -8 -8 0 -8 4 0 13 8 10 7 17 -2 27 -8 10 -6 9 8 -1 11 -8 30
-14 43 -13 12 0 22 -3 22 -8 0 -5 6 -3 14 4 9 9 10 15 3 20 -6 4 -14 5 -17 3
-4 -2 -7 2 -7 8 0 7 9 14 19 14 10 1 16 -3 12 -9 -4 -5 4 -4 17 3 13 7 25 10
26 8 1 -2 5 0 10 5 5 6 2 6 -6 1 -11 -6 -13 -4 -8 8 4 10 0 20 -11 26 -13 7
-11 9 11 8 17 -1 25 -7 23 -14 -3 -7 0 -15 7 -19 7 -4 9 -3 4 1 -4 5 0 19 9
33 9 13 12 22 6 18 -5 -3 -13 1 -16 10 -5 13 -2 15 14 11 17 -4 19 -3 9 9 -13
16 1 19 19 4 7 -5 6 -2 -2 7 -13 14 -18 14 -31 3 -8 -7 -18 -10 -22 -6 -3 3
-1 6 5 6 7 0 12 9 12 20 0 11 -5 20 -12 20 -6 0 -8 3 -4 7 4 5 15 -1 23 -12
14 -18 15 -18 9 -1 -5 15 -2 17 14 13 27 -7 25 2 -2 12 -13 5 -33 5 -45 0 -17
-6 -21 -5 -16 6 3 8 8 13 12 11 4 -3 13 0 21 6 12 8 12 9 -2 4 -11 -3 -19 2
-23 14 -5 17 -55 57 -55 45 0 -4 -10 1 -22 9 -12 9 -27 16 -33 16 -5 0 -3 -5
5 -11 13 -9 13 -10 0 -6 -8 2 -15 11 -15 20 0 8 -4 19 -9 24 -5 4 -6 3 -2 -4
10 -17 -4 -16 -28 2 -13 10 -15 15 -6 15 7 0 11 3 7 6 -3 3 -13 1 -23 -4 -16
-9 -15 -10 5 -17 22 -7 58 -52 48 -61 -3 -3 -8 4 -12 15 -3 12 -11 18 -17 15
-6 -4 -8 -2 -5 3 4 6 -7 16 -23 23 -28 12 -29 14 -15 30 13 14 13 17 0 17 -8
0 -12 -4 -10 -8 3 -4 -2 -9 -10 -13 -8 -3 -17 0 -21 6 -5 7 -2 8 6 3 9 -5 11
-4 6 4 -6 8 -12 9 -20 2 -7 -6 -23 -8 -37 -5 -13 3 -29 6 -36 6 -8 1 -9 7 -2
19 5 10 9 20 9 23 0 8 -47 -42 -53 -56 -4 -8 -6 -7 -6 5 -1 19 -21 24 -21 5 0
-7 -5 -5 -11 5 -5 9 -15 17 -21 17 -6 0 -5 -7 3 -17 13 -15 12 -15 -8 -3 -18
11 -20 17 -10 30 9 12 9 13 -2 3 -7 -6 -21 -9 -30 -5 -13 5 -13 3 2 -12 10
-10 15 -21 11 -25 -4 -3 -9 0 -11 7 -3 6 -12 12 -21 12 -15 0 -15 -2 -2 -10
11 -7 11 -10 2 -10 -7 0 -11 -4 -7 -9 3 -5 1 -12 -4 -16 -6 -3 -8 3 -6 15 2
11 -1 20 -6 20 -6 0 -7 6 -3 13 6 9 5 9 -8 0 -8 -7 -19 -9 -23 -5 -5 4 -5 1
-1 -6 4 -7 11 -10 15 -8 4 3 7 -4 8 -15 2 -16 -2 -15 -23 8 -13 14 -24 20 -24
13 0 -7 -3 -10 -7 -7 -10 10 -34 -14 -26 -27 3 -6 -7 1 -24 17 -16 15 -33 27
-37 27 -5 0 2 -9 15 -20 13 -10 20 -19 15 -20 -5 0 -3 -7 4 -15 7 -8 17 -12
24 -8 6 3 7 2 3 -2 -10 -11 -39 -16 -32 -5 7 11 -22 21 -40 14 -8 -4 -15 -1
-15 5 0 6 -5 11 -12 11 -6 0 -3 -10 8 -21 19 -22 19 -22 -3 -10 -15 8 -24 8
-28 0 -4 -6 -13 -8 -20 -5 -9 3 -11 -3 -9 -17 4 -19 3 -19 -6 2 -6 14 -8 31
-6 38 3 7 2 13 -3 13 -5 0 -7 14 -6 30 1 17 -2 30 -7 30 -6 0 -8 6 -5 14 3 8
-3 56 -14 108 -11 51 -22 104 -25 118 -6 32 -42 155 -57 195 -7 17 -12 32 -12
35 -1 10 -43 115 -70 175 -15 33 -26 60 -25 60 1 0 -17 33 -39 74 -23 41 -41
78 -41 82 0 5 -3 9 -8 9 -4 0 -19 21 -32 47 -14 26 -33 56 -42 67 -10 11 -20
28 -24 38 -3 10 -9 18 -14 18 -5 0 -11 8 -14 18 -3 9 -18 32 -33 49 -16 17
-39 45 -52 63 -45 58 -141 159 -228 240 -127 118 -226 193 -356 270 -45 27
-86 53 -92 57 -21 17 -185 93 -280 131 -158 62 -249 88 -420 121 -67 13 -122
22 -170 28 -52 6 -452 12 -458 7z m-1944 -1391 c-13 -32 -31 -71 -38 -88 -18
-41 -66 -185 -71 -214 -3 -14 -7 -28 -10 -33 -5 -7 -7 -16 -19 -70 -5 -24 -20
-100 -30 -153 -3 -16 -8 -45 -10 -63 -3 -17 -7 -49 -10 -70 -17 -126 -12 -436
10 -590 4 -26 9 -58 11 -72 7 -50 15 -95 20 -110 3 -8 8 -26 10 -40 3 -14 16
-63 31 -110 14 -47 27 -92 28 -100 2 -8 4 -16 5 -17 2 -2 3 -6 4 -10 1 -5 10
-25 19 -47 9 -21 17 -44 17 -51 0 -6 3 -14 6 -18 3 -3 17 -28 29 -56 l24 -50
-27 10 c-263 95 -498 289 -615 509 -34 64 -73 168 -69 183 1 4 -1 7 -6 7 -4 0
-8 10 -8 23 -1 12 -5 38 -9 57 -9 44 -10 223 -2 270 4 19 9 49 12 65 18 96 80
245 139 334 20 29 36 55 36 58 0 2 6 10 13 18 6 7 26 30 42 51 58 75 311 316
330 314 3 0 14 8 24 18 37 32 50 42 61 42 5 0 10 4 10 9 0 7 46 41 67 50 1 1
-10 -25 -24 -56z m4912 -681 c-3 -3 -11 0 -18 7 -9 10 -8 11 6 5 10 -3 15 -9
12 -12z m-227 -13 c3 -11 1 -11 -7 1 -10 13 -15 8 -12 -12 0 -5 -3 -8 -8 -8
-10 0 -22 26 -15 33 10 10 38 0 42 -14z m342 -13 c0 -10 -30 0 -34 11 -4 11
-1 11 14 3 11 -6 20 -12 20 -14z m-447 -31 c-7 -21 -12 -19 -10 4 0 11 5 18 9
15 4 -3 5 -11 1 -19z m483 -1 c1 -9 0 -13 -4 -10 -3 4 -7 14 -8 22 -1 9 0 13
4 10 3 -4 7 -14 8 -22z m-532 -5 c-3 -5 -10 -7 -15 -3 -5 3 -7 10 -3 15 3 5
10 7 15 3 5 -3 7 -10 3 -15z m641 -19 c-3 -4 -15 -6 -27 -2 -21 5 -21 6 -2 12
21 8 37 3 29 -10z m59 -27 c3 -7 0 -15 -7 -19 -7 -4 -9 -4 -5 1 10 10 -19 38
-32 30 -5 -3 -7 0 -4 9 5 12 9 13 25 3 10 -6 21 -17 23 -24z m-29 -13 c3 -5 1
-10 -4 -10 -6 0 -11 5 -11 10 0 6 2 10 4 10 3 0 8 -4 11 -10z m42 -117 c-4 -3
1 -12 11 -20 13 -10 14 -13 2 -11 -25 5 -36 38 -13 38 4 0 3 -3 0 -7z m-72
-63 c-3 -5 -12 -10 -18 -10 -7 0 -6 4 3 10 19 12 23 12 15 0z m47 3 c-6 -3
-10 -9 -7 -14 4 -5 -1 -6 -9 -3 -23 9 -19 20 7 21 12 0 16 -1 9 -4z m-68 -49
c3 -8 2 -12 -4 -9 -6 3 -10 10 -10 16 0 14 7 11 14 -7z m-68 -51 c-8 -9 -46
-11 -51 -3 -3 5 4 7 15 5 23 -4 26 5 8 25 -7 8 -3 6 10 -4 12 -11 20 -21 18
-23z m-122 -29 c3 -8 2 -12 -4 -9 -6 3 -10 10 -10 16 0 14 7 11 14 -7z m-97
-59 c0 -8 -4 -12 -9 -9 -5 3 -6 10 -3 15 9 13 12 11 12 -6z m-141 -111 c-3
-15 -8 -29 -11 -32 -3 -3 -3 5 -1 19 2 13 5 27 5 32 1 4 3 7 6 7 3 0 3 -12 1
-26z m-29 -13 c0 -11 -5 -18 -9 -15 -4 3 -5 11 -1 19 7 21 12 19 10 -4z m113
15 c0 -3 -4 -8 -10 -11 -5 -3 -10 -1 -10 4 0 6 5 11 10 11 6 0 10 -2 10 -4z
m-52 -31 c-3 -3 -9 2 -12 12 -6 14 -5 15 5 6 7 -7 10 -15 7 -18z m-168 5 c0
-5 -2 -10 -4 -10 -3 0 -8 5 -11 10 -3 6 -1 10 4 10 6 0 11 -4 11 -10z m195 0
c3 -5 1 -10 -4 -10 -6 0 -11 5 -11 10 0 6 2 10 4 10 3 0 8 -4 11 -10z m45 2
c0 -5 -7 -9 -15 -9 -8 0 -12 4 -9 9 3 4 9 8 15 8 5 0 9 -4 9 -8z"/>
<path d="M6370 4000 c0 -5 -7 -10 -15 -10 -8 0 -15 -4 -15 -9 0 -7 47 -7 55 1
2 2 -3 9 -11 16 -8 7 -14 8 -14 2z"/>
<path d="M6436 3982 c-4 -7 -4 -12 1 -13 4 0 19 -2 33 -5 18 -3 21 -2 10 5 -8
5 -17 8 -21 5 -4 -2 -9 1 -11 8 -3 9 -6 9 -12 0z"/>
<path d="M5995 3920 c-3 -5 -1 -10 4 -10 6 0 11 5 11 10 0 6 -2 10 -4 10 -3 0
-8 -4 -11 -10z"/>
<path d="M6796 3822 c-3 -5 1 -9 9 -9 8 0 12 4 9 9 -3 4 -7 8 -9 8 -2 0 -6 -4
-9 -8z"/>
<path d="M6810 3681 c0 -6 4 -13 10 -16 6 -3 7 1 4 9 -7 18 -14 21 -14 7z"/>
<path d="M6514 3505 c-4 -8 -10 -13 -15 -10 -4 3 -13 -4 -19 -15 -6 -11 -7
-20 -3 -19 4 1 10 0 13 -1 16 -6 41 -7 35 -2 -4 4 -12 7 -17 7 -6 0 -13 5 -15
12 -3 8 3 11 16 8 14 -3 18 1 14 11 -4 10 0 12 11 8 9 -3 16 -4 16 -1 0 13
-31 15 -36 2z"/>
<path d="M6590 3506 c0 -2 7 -7 16 -10 8 -3 12 -2 9 4 -6 10 -25 14 -25 6z"/>
<path d="M6555 3491 c-3 -5 -2 -12 3 -15 5 -3 9 1 9 9 0 17 -3 19 -12 6z"/>
<path d="M6465 3440 c-3 -5 -2 -10 4 -10 5 0 13 5 16 10 3 6 2 10 -4 10 -5 0
-13 -4 -16 -10z"/>
<path d="M6490 3420 c0 -5 5 -10 11 -10 5 0 7 5 4 10 -3 6 -8 10 -11 10 -2 0
-4 -4 -4 -10z"/>
<path d="M6444 3408 c-5 -7 -2 -9 8 -5 9 3 22 0 29 -6 11 -10 11 -9 0 6 -16
20 -27 22 -37 5z"/>
<path d="M6468 3343 c7 -3 16 -2 19 1 4 3 -2 6 -13 5 -11 0 -14 -3 -6 -6z"/>
<path d="M5990 3329 c0 -15 18 -19 23 -6 3 8 -1 14 -9 14 -8 0 -14 -4 -14 -8z"/>
<path d="M5975 3300 c3 -5 8 -10 11 -10 2 0 4 5 4 10 0 6 -5 10 -11 10 -5 0
-7 -4 -4 -10z"/>
<path d="M6110 3300 c0 -5 5 -10 11 -10 5 0 7 5 4 10 -3 6 -8 10 -11 10 -2 0
-4 -4 -4 -10z"/>
<path d="M6215 3280 c3 -5 8 -10 11 -10 2 0 4 5 4 10 0 6 -5 10 -11 10 -5 0
-7 -4 -4 -10z"/>
<path d="M6393 3255 c0 -8 4 -12 9 -9 5 3 6 10 3 15 -9 13 -12 11 -12 -6z"/>
</g>
</svg>
